<?xml version="1.0" encoding="UTF-8"?>
<!-- Creator: CorelDRAW 2018 (64 Bit Versão de avaliação) -->
<svg xmlns="http://www.w3.org/2000/svg" xmlns:xlink="http://www.w3.org/1999/xlink" xml:space="preserve" width="187.706mm" height="58.3354mm" version="1.1" style="shape-rendering:geometricPrecision; text-rendering:geometricPrecision; image-rendering:optimizeQuality; fill-rule:evenodd; clip-rule:evenodd" viewBox="0 0 19632.83 6101.5">
 <defs>
  <style type="text/css">
   <![CDATA[
    .fil0 {fill:#8F39D8}
   ]]>
  </style>
 </defs>
 <g id="Camada_x0020_1">
  <metadata id="CorelCorpID_0Corel-Layer"></metadata>
  <g id="_1815758444976">
   <path class="fil0" d="M9782.91 4358.21c-142.55,0 -212.19,2.2 -212.19,-268.2 0,-186.67 -32.33,-648.14 223.36,-648.14 191.5,0 156.35,32.64 156.35,290.55l-12.83 277.71c-22.52,209.2 46.31,348.09 -154.68,348.09zm1261.95 -2849.59c-74.55,0 -149.12,0.39 -223.65,-0.3 -187.63,-1.74 -171.73,118.87 -187.95,270.1l-12.77 221.89 -26.31 -40.72c-30.07,-53.14 -50.23,-88.55 -93.44,-130 -149.08,-142.99 -376.8,-141.63 -584.02,-153.67 -66.94,-3.89 -85.7,10.09 -144.61,11.85 -189.54,5.66 -387.57,11.09 -548.7,43.22 -311.11,62.04 -345.08,80.25 -345.08,381.07 0,133.04 35.58,266.09 89.34,346.42 64.65,-5.39 121.83,-30.19 181.52,-41.86 72.33,-14.15 121.05,-28.01 198.14,-36.4 756.74,-82.34 614.26,-27.01 614.26,625.82 -79.37,-6.61 -727.92,-311.62 -1005.34,256.78 -25.83,52.92 -72.11,165.04 -77.92,234.93 -34.01,-24.94 -27.51,-78.41 -32.66,-146.12l-53.37 -516.51c-47.71,-366.77 -62.91,-973.47 -204.32,-1292.98 -139.13,-314.34 -378.29,-301.72 -681.23,-301.72 -135.75,0 -276.91,38.36 -383.96,73.96 -95.01,31.59 -280.12,138.37 -353.11,138.37 -62.53,0 -204.8,-210.42 -982.86,11.07 -74.4,21.18 -166.15,59.28 -234.27,89.65 -263.01,117.23 -202.61,117.53 -179.85,358.47 7.49,79.33 14.74,157.55 23.36,233.66 16.78,148.19 28.47,301.38 49.49,453.34 72.99,527.54 99.72,1055.67 170.46,1583.89 10.23,76.33 22.59,158.24 25.66,231.35 4.98,118.92 -8.55,168.09 85.39,154.3l450.24 -54.29c235.89,-31.3 172.13,-106.72 137.68,-382.62l-186.45 -1757.86c-13.51,-97.36 -28.91,-192.51 -28.91,-295.15 0,-29.48 15.79,-32.06 32.62,-45.58 56.73,-45.58 122.12,-77.35 201.91,-77.35 169.67,0 168.52,226.9 186.62,349.67 9.31,63.18 9.1,106.41 17.51,172.44 26.27,206.21 50.37,445.53 73.08,653.24 12.12,110.86 20.76,222.45 33.43,324.16 13.03,104.69 90.54,969.29 113.73,992.51 22.79,22.8 681.24,-37.07 681.24,-122.93 0,-115.53 -11.64,-211.84 -28.54,-329.04 -15.64,-108.51 -30.95,-224.68 -38.08,-330.67l-176.82 -1646.16c-15.24,-112.44 113.94,-163.77 209.93,-163.77 212.26,0 206.25,341.25 228.3,497.92l140.57 1323.26c2.48,45.32 13.7,120.49 18.72,160.06 8.19,64.5 9.37,107.78 17.76,172.2 13.69,105.25 17.73,225.88 41.36,327.39 74.58,17.38 206.38,-14.36 300.5,-23.39 60.98,-5.85 251.95,-41.69 291.4,-32.49 34.89,149.85 53.84,295.26 153.67,416.15 142.29,172.32 298.59,200.46 519.3,229.09 291.78,37.84 718.96,-8.5 1002.3,-131.09 123.27,-53.34 80.45,-120.52 89.82,-234.2 4.41,-53.61 11.12,-86.81 10.46,-157.15 -0.67,-72.08 9.86,-96.29 11.65,-155.97 1.6,-53.65 -4.13,-114.73 0.22,-167.4 16.94,-204.86 14.85,-419.3 21.39,-637.91 1.74,-58.24 12.07,-76.19 11.79,-144.65 -0.23,-56.03 -0.72,-112.26 -0.64,-168.27 0.09,-69.09 11.83,-86.58 11.92,-155.68 0.08,-56.06 -0.84,-112.33 -0.76,-168.4 0.09,-69.09 11.84,-86.58 11.93,-155.68 0.07,-54.87 1.61,-114.03 -0.01,-168.37l-22.71 -312.54c435.42,0 368.21,-59.7 368.53,212.32 0.1,93.21 -0.12,186.42 0.26,279.63l-13.06 545.68c-18.16,161.84 7.32,371.65 -11.16,536.4 -18.11,161.35 -9.54,369.28 -9.54,549.2 0,370.61 80.63,598.02 387.31,718.76 197.06,77.58 547.79,66.47 742.26,9.25 51.16,-15.05 108.37,-37.1 145.68,-66.55 59.46,-46.96 49.68,-68.97 87.21,-125.05 85.9,0 576.75,65.4 640.53,-7.21 43.7,-49.77 35.2,-222.67 40.1,-283.94 2.59,-32.39 -1.38,-66.98 1.2,-99.37 12.26,-153.4 19.56,-337.71 41.02,-495.35l125.3 -1673.78c2.92,-35.84 -1.74,-74.72 1.18,-110.57 3.29,-40.49 9.28,-41.09 11.6,-90.27 2.48,-52.46 8.07,-74.98 -25.47,-86.99 -75.51,-27.05 -365.45,-13.29 -455.77,-13.29 -109.37,0 -182.76,62.89 -201.64,166.99 -52.68,290.37 -38.19,718.41 -84.01,1022.26 -8.64,57.31 -0.81,112.03 -9.42,169.37 -22.67,150.72 -84.64,1181.75 -84.64,1211.6 -39.03,-28.62 -11.46,8.56 -23.37,-43.66 -36.89,-161.84 27,-182.5 -162.1,-119.58 -79.4,26.42 -163.44,29.14 -250.07,29.14 -214.94,0 -122,-573.51 -122.81,-793.38 -0.39,-104.29 -0.02,-208.64 -0.03,-312.93 -0.01,-116.43 11.61,-193.08 11.2,-301.69 -0.39,-103.91 -1.76,-209.65 -0.48,-313.37 0.78,-63.41 11.9,-77.3 12,-144.44 0.55,-397.57 -33.05,-346.81 111.3,-346.81 490.61,0 456.09,69.66 468.76,-525.83 3.24,-152.33 17.77,-116.63 -178.98,-132.9 -227.28,-18.8 -400.77,75.01 -390.99,-100.57 3.13,-56.11 12.32,-84.66 11.94,-156.97 -0.53,-104.11 -10.41,-231.03 4.64,-330.71 14.14,-93.71 18.99,-587.71 6.45,-641.58 -166.65,0 -560.25,-35.13 -703.57,44.7 -135.62,75.54 -83.3,477.03 -88.98,671.9l-11.53 244.45c0,87.84 5.51,174.21 -11.17,245.85z"></path>
   <path class="fil0" d="M4634.6 4201.77c-207.13,0 -201.02,-143.43 -201.02,-424.65 0,-108.54 13.23,-264.96 35.52,-355.59 44.64,-181.5 91.18,-225.51 243.67,-225.51 193.42,0 134.75,147.55 133.68,178.4 -3.86,112.52 12.19,232.59 -4.38,342.1l-17.68 328.74c-1.39,75.42 14.57,156.5 -189.8,156.5zm-3295.54 -4201.77l217.81 0c127.23,8.42 242.96,32.91 330.84,77.87 100.59,51.47 167.16,117.31 167.16,268.55 0,130.91 -11.97,341.65 -55.84,424.65 -61.24,-14.28 -103.64,-39.26 -170.13,-53.26 -289.03,-60.85 -670.31,-9.51 -844.13,256.4 -113.95,174.32 -158.34,430.86 -158.34,713.2 0,373.25 29.83,713.68 81.52,1069.44 49.95,343.79 89.63,709.93 202.8,1037.48 22.51,65.15 54.21,133.21 93.53,185.79 168.77,225.69 537.9,113.61 537.9,42.84 0,-111.17 -144.74,-1399.63 -167.52,-1497.43 -64.38,0 -111.5,1.03 -159.78,7.73 -52.07,7.24 -91.44,14.61 -141.74,14.61 -30.77,-64.17 -26.25,-175.6 -38.22,-263.48 -27.68,-203.17 -87.85,-340.73 160.35,-374.19 106.36,-14.33 736.45,-96.3 793.27,-88.45 52.77,7.29 41.71,52.1 48.51,108.01l132.56 1197.17c9.51,77.5 19.32,181.54 29.39,261.15 22.52,178.16 37.51,353.34 59.98,532.24 20.57,163.8 53.76,376.76 53.76,538.47l11.17 0c0,-87.84 11.8,-127.37 11.32,-212.18l22.11 -1274.16c-0.44,-85.09 11.83,-121.45 11.51,-200.81 -0.59,-142.93 -4.87,-294.45 -0.63,-436.45 2.08,-69.76 12.1,-125.13 11.23,-212.26 -0.93,-93.99 4.77,-110.94 64.84,-147.45 178.93,-108.76 388.46,-187.5 672.54,-187.5 229.3,0 238.3,5.83 379.69,100.58 -10.19,-122.57 -51.89,-387.14 60.21,-464.97 51.96,-36.08 85.7,-42.49 150.59,-61.64 104.87,-30.94 244.35,-47.55 361.73,-62.68 118.92,-15.32 687.45,-26.63 821.96,-12.68 240.01,24.9 411.74,142.74 499.52,360.63 77.56,192.5 70.36,540.45 49.77,789.49 -11.1,134.16 3.91,297.31 -0.23,435.6 -1.98,66.35 -11.63,117.91 -11.54,200.78 0.08,68.34 5.23,141.96 -4.71,207.62l-17.66 418.15c0.61,140.79 -8.84,264.04 -10.69,413.95 -0.89,71.8 -12.07,124.66 -11.46,212.02 0.58,83.08 -11.11,117.39 -10.85,201.47 0.26,84.45 -15.91,107.01 -74.58,137.7 -37.56,19.65 -109.79,44.58 -153.18,59.05 -354.57,118.34 -828.27,142.46 -1199.46,57.08 -270.8,-62.29 -410.41,-261.21 -469.47,-513.63 -71.72,-306.63 -77.49,-676.06 -4.64,-983.42 56.66,-239.07 141.69,-438.59 350.47,-565.64 227.5,-138.44 610.19,-104.88 846.81,20.41 0,-122.47 22.15,-551.49 -25.32,-645.14 -20.2,-39.85 -79.16,-81.22 -131.02,-81.22 -198.69,0 -405.09,5.97 -598.42,38.16 -105.07,17.5 -242.84,65.53 -339.67,73.59 -14.75,-22.05 -15.24,-19.97 -28.59,-49.62l-27.25 -50.96c0,110.65 -12.86,206.4 -39.52,306.88 -11.6,43.74 -14.2,82.69 -68.03,79.04l-41.31 -12.66c-109.14,-38.42 -291.02,-14.21 -348.81,89.79 -31.93,57.46 -16.06,203.83 -16.06,285.67 0,97.52 -17.17,1068.35 -30.45,1165.24l-14.22 578.04c-45.47,30.47 -8.32,23.58 -75.74,35.96 -140.95,25.88 -346.53,8.74 -493.82,8.74 -40.99,0 -53.98,-17.32 -78.17,-33.52 -17.44,65.34 -163.44,130.14 -224.78,155.02 -280.53,113.78 -612.89,180.22 -936.65,180.22 -271.89,0 -530.18,-65.03 -712.04,-248.53 -122.81,-123.92 -212.44,-275.49 -277.24,-437.79 -224.32,-561.77 -302.3,-1449.51 -350.26,-2029.77 -6.09,-73.64 5.95,-159.62 -2.22,-232.45 -5.29,-47.11 -8.46,-101.68 -9.54,-161.32l0 -96.26c5.45,-323.79 63.97,-747.2 174.81,-977.16 103.5,-214.71 244.29,-378.9 451.06,-498.52 157.97,-91.4 440.65,-163.21 713.19,-179.27z"></path>
   <path class="fil0" d="M14160.65 4056.49c-75.36,0 -146.22,9.78 -182.37,-85.7 -69.41,-183.32 17.29,-744.76 61.64,-929.09 17.96,-74.63 26.24,-162.78 46.96,-243.56 34.19,-133.3 154.64,-764.31 375.3,-764.31 123.47,0 188.82,-3.37 149.9,205.86 -64.52,346.95 -122.19,759.08 -181.86,1114.34 -16.06,95.61 -33.28,186.72 -45.62,278.42 -18.06,134.32 -41.35,424.04 -223.96,424.04zm-1016.26 -301.72c0,173.98 34.05,330.41 76.67,459.69 42.42,128.67 117.64,248.05 211.94,324.32 200.52,162.15 487.8,200.66 706.08,77.21 26.1,-14.75 60.3,-37.89 88.59,-45.46 -2.43,108.83 -120.88,705.38 -144.65,883.34 -49.84,372.97 -126.97,339.49 188.38,402.71 480.16,96.27 476.35,-0.48 541.69,-342.65 17.16,-89.93 26.58,-172.11 41.43,-260.27l215.44 -1304.21c31.9,-175.27 51.56,-347.21 85.6,-517.79 16.23,-81.41 26.48,-177.57 42.73,-258.96 47.37,-237.44 81.1,-539.41 128.51,-787.75l95.81 -529.92c0,715.63 -33.5,1410.72 -33.5,2134.41 0,454.32 106.32,694.4 468.93,838.22 298.58,118.43 890.86,71.03 1190.61,-15.73 136.87,-39.62 216.31,-63.73 217.35,-162.46l10.31 -738.4c-0.52,-90.15 11.44,-147.02 11.32,-245.7l4.33 -364.45c40.62,-265.34 17.21,-689.89 17.61,-988.1 0.09,-61.41 8.88,-71.89 11.61,-122.49l0.33 -369.21c0.82,-49.74 13.19,-100.18 -33.89,-100.18 -746.14,0 -681.92,-53.94 -681.22,245.86 0.28,124.2 -11.18,223.7 -11.18,357.58 0,253.2 -10.44,470.87 -10.79,726.76 -0.09,70.63 -12.11,92.89 -11.81,166.97l0.71 369.48c-0.83,66.71 -12.09,99.91 -11.69,178.28 0.62,119.1 5.23,251.61 0.48,369.26 -5.67,140.66 -145.96,156.04 -268.43,156.04 -231.18,0 -156.16,-543.75 -155.97,-681.29l-0.64 -358.24c-0.3,-74.08 11.71,-96.34 11.81,-166.97 0.16,-115.54 -0.24,-231.25 -0.39,-346.81 -0.15,-122.1 11.18,-207.8 11.17,-335.24 0,-115.47 0.01,-230.95 0,-346.42 -0.01,-130.22 11.17,-217.46 11.17,-346.42 -94.22,-21.96 -554.17,-19.43 -670.44,-0.38 -74.96,12.29 -48.86,32.96 -77.8,78.6 -12.85,-154.59 -504.46,-334.15 -736.77,-335.55 -55.32,-0.32 -109.51,-11.31 -143.79,-9.3 -549.95,32.19 -850.74,293.9 -1085.11,769.33 -194.72,394.99 -312.54,1089.28 -312.54,1542.3z"></path>
   <path class="fil0" d="M18460.22 2939l-145.19 0c0,-152.88 25.71,-382.52 60.16,-520.9 52.51,-210.84 102.99,-306.05 286.04,-306.05 206.99,0 201.02,270.93 201.02,435.82 0,79.57 -12.92,309.97 -47.61,343.48 -29.56,28.56 -282.63,47.64 -354.43,47.64zm1172.61 -516.99l0 234.44c-7.06,154.87 -26.04,308.67 -45.25,449.61 -48.7,357.44 -75.4,307.14 -231.86,326.73 -86.98,10.89 -169.31,17.31 -270.44,19.94 -57.12,1.49 -68.6,11.87 -133.3,11.88l-402.41 10.8c-48.52,0 -97.06,0.41 -145.57,-0.39 -49.71,-0.83 -100.12,-13.2 -100.12,33.91 0,260.45 8.9,547.57 335.02,547.57 619.87,0 717.4,-134.33 848.75,-145.27 44.93,84.98 55.83,281.72 55.83,413.47 0,240.6 24.97,224.26 -170.63,298.6 -46.78,17.78 -70.87,20.12 -124.16,32.2 -47.87,10.86 -71.05,19.83 -118.79,26.41 -469.96,64.81 -1139.58,131.13 -1438.12,-337 -168.32,-263.92 -214.32,-621.01 -214.32,-1048.31 0,-111.79 2.2,-258.34 17.6,-362.32 8.38,-56.5 10.26,-122.45 15.82,-174.15 31.46,-292.29 147.92,-727.66 354.41,-941.64 320.26,-331.86 855.7,-378.95 1269.38,-236.06 70.15,24.23 100.94,46.27 152.08,82.5 244.85,173.45 330.2,455.8 346.07,757.08z"></path>
   <path class="fil0" d="M12619.5 994.57c0,138.52 -13.95,269.24 67.96,378.98 100.45,134.56 402.43,164.63 527.62,-62.39 92.27,-167.34 85.64,-271.2 85.64,-450.69 0,-194.23 -88.44,-312.9 -290.35,-312.9 -251.41,0 -390.88,196.19 -390.88,447z"></path>
   <path class="fil0" d="M9928.09 5978.57c-152.25,0 -134.01,3.11 -134.01,-145.27 0,-51.54 62.77,-33.52 189.85,-33.52 74.04,0 122.63,178.79 -55.84,178.79zm78.17 -301.72c-51.27,11.96 -61.89,8.22 -123.33,11.86 -98.64,5.84 -88.85,32.46 -88.85,-145.96 117.58,0 97.7,-15.51 212.18,11.18 8.23,35.34 21.13,75.61 0,122.92zm-357.36 -245.85c-2.91,34.96 -11.17,39.7 -11.17,78.23l0 514.05c0,99.45 81.1,67.05 335.03,67.05 154.56,0 223.36,-84.6 223.36,-223.51 0,-70.14 -60.18,-101.7 -89.34,-145.27 47,-70.24 91.53,-118.53 37.82,-216.57 -62.27,-113.67 -269.42,-85.15 -439.86,-85.15 -17.59,0 -42.32,5.92 -55.84,11.17z"></path>
   <path class="fil0" d="M11882.43 5777.42c0,-96.56 50.97,-234.68 145.19,-234.68l67 0c178.26,0 215.05,435.82 -33.5,435.82 -128.04,0 -178.69,-139.32 -178.69,-201.14zm-145.18 -33.52c0,202.11 113.64,357.59 301.52,357.59 120.92,0 204.53,-15.31 287.76,-125.53 121.31,-160.64 78.09,-574.36 -275.66,-565.27 -57.37,1.47 -131.48,23.05 -177.57,55.88 -82.76,58.96 -136.06,171.51 -136.06,277.33z"></path>
   <path class="fil0" d="M12463.16 5609.8c0,165.78 154.79,170.53 303.26,221.77 71.21,24.57 56.87,21.82 87.61,79.95 -70.84,133.97 -203.47,70.53 -242.82,19.49 -49.54,-64.2 -42.25,-91.46 -159.21,-64.19 -16.31,68.16 -3.12,121.92 76.12,180.86 39.3,29.22 93.59,47.57 151.38,53.81l89.13 0c120.24,-13.1 230.59,-80.24 230.59,-212.32 0,-232.18 -390.88,-189.95 -390.88,-279.37 0,-115.26 193.77,-115.9 223.36,11.17 107.23,0 63.85,32.15 145.18,-22.35 -21.18,-254.71 -513.71,-258.11 -513.71,11.18z"></path>
   <path class="fil0" d="M8967.67 5431c-23.87,102.52 -11.17,288.88 -11.17,402.3 0,202.76 126.22,268.2 312.69,268.2 319.55,0 256.86,-341.72 256.86,-636.97 0,-68.19 -108.6,-36.94 -144.85,-31.61 -4.76,51.4 -11.79,83.82 -11.53,154.51 0.98,266.87 38.29,391.15 -133.98,391.15 -149.06,0 -122.89,-158.45 -122.84,-234.67 0.09,-155.48 54.47,-390.45 -145.18,-312.9z"></path>
   <path class="fil0" d="M11368.72 6101.5c181.34,0 308.72,-89.54 312.69,-268.2 -56.89,-30.12 -108.18,-21.4 -147.36,31.35 -61.96,83.41 -37.07,102.75 -165.33,102.75 -195.15,0 -195.15,-435.82 0,-435.82 203.39,0 72.69,111.75 268.02,111.75 77.36,0 11.33,-129.67 -58.73,-187.09 -120.01,-98.35 -462.09,-115.65 -508.38,279.84 -18.14,155.05 90.83,365.42 299.08,365.42z"></path>
   <path class="fil0" d="M8520.96 5542.75c130.17,0 223.35,-22.47 223.35,100.58 0,57.25 -26.4,71.14 -77.97,78.57 -83.05,11.94 -73.12,1.27 -145.37,-0.35l0 -178.8zm-145.19 -111.75c-25.18,108.14 -11.16,458.36 -11.16,592.27 0,60.28 71.18,55.87 111.67,55.87 98.05,0 -9.33,-207.44 69.15,-232.38 97.03,-30.82 344.06,63.73 344.06,-236.97 0,-227.22 -302.71,-189.97 -457.88,-189.97 -17.59,0 -42.32,5.92 -55.84,11.17z"></path>
   <path class="fil0" d="M3651.84 5431l0 648.14c71.62,17.15 21.59,15.79 89.34,0l0 -480.52c32.76,8.75 34.69,21.98 51.85,48.7l214.02 333.41c46.28,72.72 45.6,109.59 136.17,109.59 25.73,0 33.5,-7.78 33.5,-33.53l0 -592.27c0,-42.59 -90.82,-98.83 -90.17,43.87l0.84 414.3c-42.53,-11.36 -34.31,-26.86 -93.95,-118.32 -32.31,-49.55 -55.87,-87.86 -86.91,-136.54 -119.29,-187.18 -140.49,-281.2 -254.7,-236.84z"></path>
   <path class="fil0" d="M5851.87 5732.72c-74.98,0 -77.61,-11.17 -134.01,-11.17 0,-98.41 -8.04,-129.84 11.16,-212.32 67.02,-5.57 312.7,-57.23 312.7,100.58 0,103.12 -86.85,122.92 -189.86,122.92zm-234.52 -268.2l0 581.1c0,36.4 26.55,44.7 55.84,44.7 68.6,0 44.67,-161.77 44.67,-279.38 65.03,-5.41 243.03,-9.98 276.91,24.63 59.05,60.33 11.64,254.75 80.45,254.75 71.03,0 72.53,-0.33 57.86,-67.15 -44.79,-204.1 21.35,-105.19 -80.2,-256.92 15.79,-23.6 29.64,-41.49 46.63,-65.1 69.97,-97.16 45.56,-281.32 -202.97,-281.32 -107.99,0 -279.19,-23.53 -279.19,44.69z"></path>
   <path class="fil0" d="M6890.48 5755.07c0,-266.65 272.69,-341.8 381.86,-203.31 88.49,112.26 87.63,308.57 -0.18,406.44 -134.99,150.48 -381.68,42.13 -381.68,-203.13zm-89.34 0c0,86.01 39.8,193.95 81.17,242.86 69.71,82.4 134.77,103.57 253.86,103.57 296.3,0 377.08,-403.84 209.31,-600.56 -161.94,-189.9 -544.35,-102.52 -544.35,254.14z"></path>
   <path class="fil0" d="M3015.28 5766.25c0,-380.53 446.71,-365.65 446.71,-11.18 0,358.91 -446.71,353.77 -446.71,11.18zm253.02 335.24l-58.12 0c-73.26,-6.73 -144.99,-38.85 -199.74,-95.72l-15.52 -18c-9.95,-12.84 -6.71,-8.96 -13.73,-19.78 -12.73,-19.59 -15.42,-23.04 -26.26,-51.95 -35.93,-95.83 -28.98,-108.72 -28.98,-205.66 0,-38.96 21.87,-101.89 35.24,-132.37 117.44,-267.94 590.16,-236.44 590.16,165.9 0,226.76 -136.31,343.99 -283.03,357.59z"></path>
   <path class="fil0" d="M7515.86 5598.62c0,268.77 413.21,119.8 413.21,324.07 0,95.43 -125.55,122.54 -211.82,100.52 -131.7,-33.63 -114.15,-156.4 -179.04,-156.4 -91.58,0 -6.86,145.07 20.19,169.78 44.14,40.32 118.34,63.05 194.95,64.9l20.32 0c127.99,-3.1 255.92,-64.99 255.92,-201.14 0,-93.27 -89.08,-159.49 -188.73,-179.92 -84.99,-17.43 -235.65,-36.06 -235.65,-132.98 0,-115.98 260.88,-160.69 312.7,33.52 30.42,0 78.17,7.28 78.17,-22.35 0,-252.32 -480.22,-249.35 -480.22,0z"></path>
   <path class="fil0" d="M6644.79 5911.52c0,101.1 -116.03,127.45 -201.21,112.84 -167.33,-28.72 -108.75,-157.54 -200.83,-157.54 -79.52,0 -34.31,234.68 245.69,234.68 164.45,0 245.69,-73.55 245.69,-223.5 0,-220.03 -413.21,-114.61 -413.21,-290.55 0,-40.31 11.93,-54.17 39.07,-72.65 27.27,-18.58 53.8,-27.93 94.95,-27.93 114.64,0 134.13,67.54 178.68,134.1l67 0c12.29,-58.06 -10.58,-106.74 -52.33,-148.78 -94.49,-95.19 -305.9,-72.95 -380.58,17.31 -51.51,62.24 -61.35,149.99 -5.94,213.01 51.59,58.68 110.24,71.46 201.54,88.88 68.16,13.02 181.48,38.67 181.48,120.13z"></path>
   <path class="fil0" d="M4969.63 5431c-22.73,97.63 -24.09,483.5 26.32,565.94 58.55,95.78 142.68,104.55 252.88,104.55 306.39,0 245.69,-324.76 245.69,-636.97 0,-69.93 -80.76,-35.52 -89.34,-33.52 -67.77,291.08 109.01,592.27 -189.85,592.27 -55.27,0 -105.17,-26.31 -129.99,-59.9 -23.53,-31.87 -35.2,-103.05 -37.61,-152.33 -5.92,-120.23 0.08,-257.85 0.08,-380.04 -33.91,-7.91 -44.32,-13.15 -78.17,0z"></path>
   <path class="fil0" d="M10296.62 5431c-25.18,108.14 -11.17,458.36 -11.17,592.27 0,34.32 10.34,67.05 44.67,67.05l379.71 0c52.81,0 44.67,-54.26 44.67,-89.41 0,-50.91 -79.25,-33.92 -133.97,-33.56 -233.95,1.52 -180.79,53 -177.82,-459.04 0.5,-85.48 -13.5,-88.49 -90.24,-88.49 -17.59,0 -42.32,5.92 -55.84,11.17z"></path>
   <path class="fil0" d="M4277.23 5732.72c0,248.65 125.04,352.24 257.57,368.78l79.38 0c94.28,-11.48 180.25,-62.21 213.88,-130.48 82.21,-166.81 -35.29,-172.11 -62.48,-96.05 -95.19,266.22 -399,158.73 -399,-131.07 0,-65.03 29.05,-141.31 55.19,-179.45 39.19,-57.19 91.26,-77.58 179.33,-77.58 197.39,0 102.44,197.06 256.86,122.93 -8.28,-99.63 -126.18,-201.15 -234.53,-201.15 -103.36,0 -199.03,8.16 -263.87,93.56 -39.64,52.2 -82.33,143.65 -82.33,230.51z"></path>
   <path class="fil0" d="M2546.23 6101.5c311.85,0 351.78,-268.2 268.03,-268.2 -101.86,0 -14.42,189.97 -245.69,189.97 -252.16,0 -297.47,-536.4 22.33,-536.4 172.58,0 112.28,134.1 223.36,134.1 92.06,0 -18.81,-212.32 -212.19,-212.32 -390.92,0 -368.79,434.9 -265.36,578.43 41.02,56.93 117.05,114.41 209.52,114.41z"></path>
   <path class="fil0" d="M10832.67 5431c-4.05,48.67 -20.62,56.94 -10.58,178.22 17.74,214.33 -0.59,144.74 -0.59,347.01 0,62.03 11.17,66.26 11.17,122.92 37.96,8.85 145.18,36.12 145.18,-33.52l0 -581.1c0,-61 -109.82,-47.26 -145.18,-33.52z"></path>
   <path class="fil0" d="M9191.02 5341.6c0,25.75 7.77,33.52 33.51,33.52 54.92,0 243.06,-156.45 122.84,-156.45l-67.01 0 -89.34 122.93z"></path>
  </g>
 </g>
</svg>
